<svg xmlns="http://www.w3.org/2000/svg" xmlns:xlink="http://www.w3.org/1999/xlink" width="24px" height="24px" viewBox="0 0 24 24" version="1.1">
<g id="surface1">
<path style="stroke:none;fill-rule:nonzero;fill:currentColor;fill-opacity:1;" d="M 18.132812 10.460938 C 18.132812 10.4375 18.132812 10.414062 18.132812 10.390625 C 17.53125 7.761719 15.085938 5.640625 12.425781 5.433594 C 9.632812 5.21875 7.164062 6.617188 5.941406 9.121094 C 5.488281 10.050781 5.257812 11.035156 5.304688 12.074219 C 5.289062 13.28125 5.613281 14.394531 6.238281 15.414062 C 7.222656 17.015625 8.632812 18.023438 10.457031 18.441406 C 10.644531 18.484375 10.671875 18.4375 10.671875 18.261719 C 10.667969 16.210938 10.667969 14.164062 10.671875 12.117188 C 10.671875 11.945312 10.636719 11.886719 10.453125 11.890625 C 9.835938 11.898438 9.21875 11.886719 8.601562 11.882812 C 8.601562 11.21875 8.613281 10.554688 8.59375 9.886719 C 8.589844 9.667969 8.65625 9.640625 8.855469 9.640625 C 9.910156 9.652344 10.96875 9.65625 12.023438 9.640625 C 12.476562 9.632812 12.796875 9.78125 12.964844 10.222656 L 12.984375 10.367188 C 13.03125 10.433594 13.015625 10.503906 13.015625 10.574219 L 13.015625 18.445312 C 13.046875 18.449219 13.074219 18.449219 13.105469 18.445312 C 14.375 18.222656 15.421875 17.570312 16.347656 16.710938 C 17.199219 15.925781 17.75 14.9375 18.066406 13.824219 C 18.386719 12.714844 18.425781 11.585938 18.132812 10.460938 Z M 11.679688 9.105469 C 11.097656 9.132812 10.472656 8.453125 10.472656 7.789062 C 10.46875 7.617188 10.5 7.453125 10.5625 7.292969 C 10.625 7.136719 10.714844 6.996094 10.832031 6.875 C 10.949219 6.753906 11.089844 6.65625 11.246094 6.59375 C 11.398438 6.527344 11.5625 6.492188 11.730469 6.492188 C 12.070312 6.492188 12.394531 6.628906 12.636719 6.871094 C 12.875 7.113281 13.011719 7.445312 13.011719 7.785156 C 13.007812 8.496094 12.429688 9.066406 11.679688 9.105469 Z M 11.679688 9.105469 "/>
</g>
</svg>
